<?xml version="1.0" standalone="no"?>
<!DOCTYPE svg PUBLIC "-//W3C//DTD SVG 20010904//EN"
 "http://www.w3.org/TR/2001/REC-SVG-20010904/DTD/svg10.dtd">
<svg version="1.0" xmlns="http://www.w3.org/2000/svg"
 width="513.000000pt" height="513.000000pt" viewBox="0 0 513.000000 513.000000"
 preserveAspectRatio="xMidYMid meet">
<metadata>
Created by potrace 1.11, written by Peter Selinger 2001-2013
</metadata>
<g transform="translate(0.000000,513.000000) scale(0.100000,-0.100000)"
fill="#000000" stroke="none">
<path d="M809 4744 c-47 -12 -108 -33 -135 -47 -178 -90 -300 -255 -341 -462
-3 -16 -6 -759 -6 -1650 0 -1497 1 -1625 17 -1685 63 -237 245 -412 483 -466
73 -16 190 -18 1703 -17 894 0 1652 2 1685 6 33 3 72 10 88 16 15 6 27 8 27 5
0 -2 14 2 30 11 17 9 30 13 30 11 0 -3 23 8 50 24 28 17 53 30 56 30 6 0 63
49 104 90 72 72 106 126 149 236 35 89 36 163 35 1764 0 866 -4 1595 -8 1619
-4 23 -11 53 -15 65 -5 11 -8 24 -7 27 1 8 -66 151 -75 159 -3 3 -12 15 -21
28 -19 28 -77 90 -110 118 -28 24 -148 96 -148 89 0 -2 -20 4 -45 15 -25 11
-46 19 -48 19 -1 -1 -24 2 -52 7 -27 4 -795 8 -1705 8 l-1655 1 -86 -21z"/>
</g>
</svg>
